<?xml version="1.0"?>
<svg xmlns="http://www.w3.org/2000/svg" viewBox="0 0 64 64" width="512" height="512">
<g id="hand_gel-cream-washing-hand-clean" data-name="hand gel-cream-washing-hand-clean">
<path d="M59,22H56V19a3.009,3.009,0,0,0-3-3V11a1,1,0,0,0-1-1V3a1,1,0,0,0-1-1H39a1,1,0,0,0-.45.11l-8,4A.988.988,0,0,0,30,7v4a1,1,0,0,0,.47.85A1.014,1.014,0,0,0,31,12a1.03,1.03,0,0,0,.45-.11L39.24,8H46v2a1,1,0,0,0-1,1v5a3.009,3.009,0,0,0-3,3v3H39a3.009,3.009,0,0,0-3,3V38.06L32,40.2V40a5,5,0,0,0-5-5H7a1,1,0,0,0-.45.11l-4,2A.977.977,0,0,0,2,38L1.94,54a1,1,0,0,0,.76.97l4.06,1A.986.986,0,0,0,7,56H20.74a5.074,5.074,0,0,0,2.51-.67L36,47.93V61a1,1,0,0,0,1,1H61a1,1,0,0,0,1-1V25A3.009,3.009,0,0,0,59,22ZM48,4h2v6H48Zm-1,8h4v4H47ZM39,6a1,1,0,0,0-.45.11L32,9.38V7.62L39.24,4H46V6Zm5,13a1,1,0,0,1,1-1h8a1,1,0,0,1,1,1v3H44ZM22.25,53.59a3.005,3.005,0,0,1-1.51.41H7.12l-3.18-.78L4,38.62,7.24,37H27a3,3,0,0,1,0,6H15v2H27a4.992,4.992,0,0,0,3.98-1.99L51.09,32.27a1.985,1.985,0,0,1,1.98,3.44ZM60,60H38V52H60Zm0-10H38V46.77l16.07-9.33a3.984,3.984,0,0,0-3.95-6.92L38,36.99V25a1,1,0,0,1,1-1H59a1,1,0,0,1,1,1Z"/><path d="M28.886,24h.228a3,3,0,0,0,2.809-4.053l-1.986-5.3a1,1,0,0,0-1.874,0l-1.986,5.3A3,3,0,0,0,28.886,24Zm-.936-3.352,1.05-2.8,1.05,2.8A1,1,0,0,1,29.114,22h-.228a1,1,0,0,1-.936-1.352Z"/><path d="M2.705,9.956l4.081,1.258L8.044,15.3a1,1,0,0,0,1.912,0l1.258-4.081L15.3,9.956a1,1,0,0,0,0-1.912L11.214,6.786,9.956,2.705a1,1,0,0,0-1.912,0L6.786,6.786,2.705,8.044a1,1,0,0,0,0,1.912ZM7.881,8.542a1.007,1.007,0,0,0,.661-.661L9,6.394l.458,1.487a1.007,1.007,0,0,0,.661.661L11.606,9l-1.487.458a1.007,1.007,0,0,0-.661.661L9,11.606l-.458-1.487a1.007,1.007,0,0,0-.661-.661L6.394,9Z"/><path d="M10.705,24.044a1,1,0,0,0,0,1.912l4.081,1.258L16.044,31.3a1,1,0,0,0,1.912,0l1.258-4.081L23.3,25.956a1,1,0,0,0,0-1.912l-4.081-1.258L17.956,18.7a1,1,0,0,0-1.912,0l-1.258,4.081Zm5.837-.163L17,22.394l.458,1.487a1.007,1.007,0,0,0,.661.661L19.606,25l-1.487.458a1.007,1.007,0,0,0-.661.661L17,27.606l-.458-1.487a1.007,1.007,0,0,0-.661-.661L14.394,25l1.487-.458A1.007,1.007,0,0,0,16.542,23.881Z"/></g></svg>
