<svg id="Capa_1" enable-background="new 0 0 512 512" height="512" viewBox="0 0 512 512" width="512" xmlns="http://www.w3.org/2000/svg"><g><path d="m182.451 197.347c-19.248 0-34.907 15.659-34.907 34.906v244.841c0 19.247 15.659 34.906 34.907 34.906h147.099c19.248 0 34.907-15.659 34.907-34.906v-186.094c0-4.143-3.358-7.5-7.5-7.5s-7.5 3.357-7.5 7.5v186.094c0 10.977-8.93 19.906-19.907 19.906h-147.099c-10.977 0-19.907-8.93-19.907-19.906v-244.841c0-10.977 8.93-19.906 19.907-19.906h147.099c10.977 0 19.907 8.93 19.907 19.906v23.747c0 4.143 3.358 7.5 7.5 7.5s7.5-3.357 7.5-7.5v-23.747c0-19.247-15.659-34.906-34.907-34.906h-18.554c-3.289-8.962-3.524-18.724-.604-27.934l1.154-3.639h1.826c10.354 0 18.777-8.423 18.777-18.776v-45.453c0-21.681-17.639-39.319-39.319-39.319h-11.461v-15.805c0-2.305.869-4.51 2.388-6.189 10.244-.945 18.293-9.586 18.293-20.073-.001-11.116-9.044-20.159-20.16-20.159h-51.78c-11.116 0-20.159 9.043-20.159 20.159 0 10.487 8.049 19.128 18.293 20.073 1.519 1.679 2.388 3.883 2.388 6.189v15.805h-11.461c-21.681 0-39.319 17.639-39.319 39.319v40.917c0 11.92 8.993 21.78 20.552 23.15l1.205 3.802c2.92 9.21 2.685 18.972-.604 27.934h-18.554zm47.659-182.347h51.78c2.845 0 5.159 2.314 5.159 5.159s-2.314 5.159-5.159 5.159c-12.588 0-38.623 0-51.78 0-2.845 0-5.159-2.314-5.159-5.159s2.314-5.159 5.159-5.159zm14.737 25.318h22.307c-.516 1.973-.785 4.022-.785 6.103v15.805h-20.736v-15.805c-.001-2.08-.271-4.13-.786-6.103zm-25.676 36.908h73.658c12.507 0 22.839 9.491 24.174 21.648h-122.006c1.335-12.157 11.667-21.648 24.174-21.648zm-2.988 88.548h40.185c4.142 0 7.5-3.357 7.5-7.5s-3.358-7.5-7.5-7.5c-9.177 0-47.597 0-53.204 0-4.583 0-8.312-3.729-8.312-8.312v-28.588h122.297v33.124c0 2.082-1.694 3.776-3.777 3.776-1.72 0-19.749 0-22.003 0-4.142 0-7.5 3.357-7.5 7.5s3.358 7.5 7.5 7.5h4.449c-3.115 10.39-3.267 21.268-.536 31.572h-78.563c2.731-10.304 2.579-21.182-.536-31.572z"/><path d="m223.769 379.027c4.142 0 7.5-3.357 7.5-7.5v-29.399c0-3.824-2.283-7.241-5.817-8.705-3.533-1.462-7.564-.66-10.267 2.043l-39.251 39.252c-2.186 2.185-3.39 5.091-3.39 8.183v95.309c0 4.848 3.944 8.791 8.791 8.791h41.143c4.847 0 8.791-3.943 8.791-8.791v-71.682c0-4.143-3.358-7.5-7.5-7.5s-7.5 3.357-7.5 7.5v65.472h-28.725v-87.679l28.725-28.726v15.932c0 4.143 3.358 7.5 7.5 7.5z"/><path d="m231.269 231.138c0-4.848-3.944-8.791-8.791-8.791h-41.143c-4.847 0-8.791 3.943-8.791 8.791v104.841c0 8.377 10.156 12.591 16.083 6.662l39.251-39.252c2.186-2.185 3.39-5.09 3.39-8.182v-64.069zm-15 62.647-28.725 28.726v-85.164h28.725z" /></g></svg>